<?xml version="1.0" standalone="no"?>
<!DOCTYPE svg PUBLIC "-//W3C//DTD SVG 20010904//EN"
 "http://www.w3.org/TR/2001/REC-SVG-20010904/DTD/svg10.dtd">
<svg version="1.0" xmlns="http://www.w3.org/2000/svg"
 width="212.000000pt" height="212.000000pt" viewBox="0 0 212.000000 212.000000"
 preserveAspectRatio="xMidYMid meet">
<metadata>
Created by potrace 1.14, written by Peter Selinger 2001-2017
</metadata>
<g transform="translate(0.000000,212.000000) scale(0.100000,-0.100000)"
fill="#000000" stroke="none">
<path d="M700 1811 c-78 -26 -127 -56 -187 -117 -59 -60 -98 -130 -114 -203
-10 -48 -11 -49 -52 -55 -230 -35 -360 -293 -255 -504 26 -52 97 -119 156
-147 23 -11 40 -22 39 -25 -58 -101 -115 -269 -112 -330 3 -50 3 -50 24 -50
13 0 22 12 31 45 7 25 16 48 20 50 5 3 18 24 30 47 12 24 25 45 29 48 3 3 22
25 41 50 86 111 213 182 315 175 28 -2 112 -24 188 -49 209 -69 326 -90 487
-89 136 0 154 2 245 23 115 26 244 113 304 204 24 38 26 49 26 141 -1 83 -5
109 -24 153 -25 56 -72 104 -125 126 -28 12 -34 20 -39 55 -14 106 -103 228
-202 276 -87 43 -214 52 -289 21 -30 -12 -32 -11 -81 39 -60 61 -87 79 -168
110 -81 30 -208 32 -287 6z"/>
<path d="M1983 1032 c-6 -4 -13 -20 -16 -37 -25 -141 -136 -295 -250 -348
-167 -78 -355 -71 -688 26 -194 57 -223 62 -329 62 -81 -1 -91 -4 -173 -44
-66 -33 -100 -57 -140 -101 -81 -90 -114 -210 -59 -218 17 -3 22 2 22 18 0 55
77 142 160 181 140 66 205 63 460 -21 229 -76 332 -97 458 -94 101 1 229 29
297 64 94 48 182 142 231 245 65 139 82 302 27 267z"/>
<path d="M2014 747 c-32 -51 -110 -126 -184 -177 -54 -36 -125 -76 -145 -80
-5 -1 -19 -7 -30 -13 -24 -13 -24 -13 -110 -32 -105 -24 -212 -25 -317 -2 -12
2 -190 63 -332 114 -150 53 -238 49 -340 -15 -47 -29 -106 -89 -106 -107 0
-26 28 -22 76 11 62 43 138 66 193 59 23 -3 110 -38 194 -79 226 -110 294
-129 447 -130 69 -1 139 2 155 5 167 36 294 108 416 236 104 109 166 231 125
246 -11 5 -24 -6 -42 -36z"/>
</g>
</svg>
