<svg width="911" height="124" viewBox="0 0 911 124" fill="none" xmlns="http://www.w3.org/2000/svg">
<path d="M598.574 7.98715C728.943 -12.8821 838.81 31.8378 838.81 31.8378C838.81 31.8378 863.945 38.9498 910.234 42.5V81C852.122 73.0749 812.001 58.6697 812.001 58.6697C812.001 58.6697 676.375 10.9685 546.006 31.8378C415.637 52.7071 312.077 103.39 174.874 67.6137C104.183 49.1808 48.1445 38.6623 0 35.2425V0C59.6679 0.797144 129.488 18.2213 227.442 43.7631C364.645 79.539 468.205 28.8564 598.574 7.98715Z" fill="#B6C3E7"/>
<path d="M599.525 39.2992C730.324 22.983 838.37 71.5551 838.37 71.5551C838.37 71.5551 863.406 79.0922 910.226 84.2666L910.234 123.654C851.138 113.728 810.682 97.4561 810.682 97.4561C810.682 97.4561 677.042 45.0014 546.242 61.3176C415.443 77.6338 310.347 124.708 174.715 84.1262C106.509 63.7188 49.2337 53.4685 2.02656e-05 50.5L0 11.2921C59.9495 13.8483 130.091 32.8136 227.998 62.1078C363.629 102.689 468.726 55.6154 599.525 39.2992Z" fill="#8B97B7"/>
</svg>
