<svg width="1440" height="168" viewBox="0 0 1440 168" fill="none" xmlns="http://www.w3.org/2000/svg">
<path d="M1506 0C1411.53 1.49194 1254.43 38.0492 1279.48 29.8388L1099.42 65.6454C998.687 68.6292 942.319 53.7098 942.319 53.7098C942.319 53.7098 833.236 8.95164 703.798 29.8388C574.36 50.726 471.541 101.452 335.318 65.6454C199.095 29.8388 117.674 11.9355 41.9949 29.8388C-2.789 52.2649 -39.1915 43.844 -55.8925 35.7895L-65.0002 29.8388C-63.6404 31.3504 -60.524 33.5559 -55.8925 35.7895L-10.1978 65.6454C65.4816 47.7421 146.902 53.7098 283.125 89.5164C419.348 125.323 522.168 74.597 651.606 53.7098C781.043 32.8227 915.701 80.5648 915.701 80.5648C915.701 80.5648 998.687 110.777 1099.42 107.793C1200.15 104.809 1307.15 61.1695 1317.58 53.7098C1328.02 46.2501 1411.53 31.3307 1506 29.8388V0Z" fill="#B6C3E7"/>
<path d="M1507.41 59.5436C1412.95 57.726 1254.66 88.7588 1279.99 81.4308L1098.78 110.909C998.004 110.363 942.193 93.4788 942.193 93.4788C942.193 93.4788 834.745 44.9276 704.655 61.2687C574.565 77.6097 470.032 124.704 335.146 84.148C200.261 43.5925 119.517 22.8487 43.2574 38.0904C-2.28451 58.9343 -38.3697 49.2437 -54.7784 40.6092L-63.6721 34.3432C-62.3661 35.9015 -59.3288 38.2147 -54.7784 40.6092L-10.1574 72.0471C66.1026 56.8053 147.264 65.621 282.149 106.177C417.035 146.732 521.568 99.6382 651.658 83.2971C781.748 66.9561 914.65 119.385 914.65 119.385C914.65 119.385 996.528 152.485 1097.3 153.03C1198.08 153.576 1306.53 113.711 1317.23 106.622C1327.92 99.5321 1411.9 87.5465 1506.36 89.3641L1507.41 59.5436Z" fill="#8B97B7"/>
</svg>
