<svg width="1440" height="150" viewBox="0 0 1440 150" fill="none" xmlns="http://www.w3.org/2000/svg">
<path d="M942.319 49.7098C942.319 49.7098 998.687 64.6292 1099.42 61.6453L1279.48 25.8388C1259.73 32.3134 1353.25 10.9482 1440 0.893555V29.0026C1375.28 34.1375 1325.49 44.0618 1317.58 49.7098C1307.15 57.1695 1200.15 100.809 1099.42 103.793C998.687 106.777 915.701 76.5648 915.701 76.5648C915.701 76.5648 781.043 28.8227 651.606 49.7098C522.168 70.597 419.348 121.323 283.125 85.5164C152.997 51.312 72.8777 44.3359 0 59.386V39.1974C12.7571 37.4522 26.8999 33.3978 41.9949 25.8388C117.674 7.9355 199.095 25.8388 335.318 61.6453C471.541 97.4519 574.36 46.7259 703.798 25.8388C833.236 4.95162 942.319 49.7098 942.319 49.7098Z" fill="#c0d9c9"/>
<path d="M942.193 89.4787C942.193 89.4787 998.004 106.363 1098.78 106.909L1279.99 77.4308C1260.11 83.1813 1353.31 65.3091 1440 58.2263V86.2274C1375.28 89.1042 1325.31 97.262 1317.23 102.622C1306.53 109.711 1198.08 149.576 1097.3 149.03C996.528 148.485 914.65 115.385 914.65 115.385C914.65 115.385 781.748 62.9561 651.658 79.2971C521.568 95.6382 417.035 142.732 282.149 102.176C153.233 63.4157 73.3913 53.6477 4.42448e-05 66.1656L7.23995e-05 46.0503C13.0203 44.8234 27.5785 41.2665 43.2574 34.0904C119.517 18.8486 200.261 39.5925 335.146 80.148C470.032 120.704 574.565 73.6097 704.655 57.2687C834.745 40.9276 942.193 89.4787 942.193 89.4787Z" fill="#6eaa73"/>
</svg>
