<svg width="1440" height="175" viewBox="0 0 1440 175" fill="none" xmlns="http://www.w3.org/2000/svg">
<path d="M185 80.1916C110.5 51.1923 85.5 21.0002 0 0.5V80.1916C51.5 109.146 72 109.146 132 123.624C145.11 126.787 282.5 174.747 389.5 174.747C485.935 174.747 565.5 141.72 565.5 141.72C565.5 141.72 694.5 83.811 818.5 109.146C942.5 134.482 1041 196.01 1171.5 152.578C1294.24 111.729 1370.54 102.896 1439.5 120.059V38.0002C1367 16.2842 1252 80.1916 1121.5 123.624C991 167.056 925 105.527 801 80.1916C677 54.8563 540 109.146 540 109.146C540 109.146 399.5 112.766 303 109.146L185 80.1916Z" fill="#D9D9D9"/>
<path d="M185 80.6916C110.5 51.6923 85.5 21.5002 0 1V0H1439.5V26.0002V38.5002C1367 16.7842 1252 80.6916 1121.5 124.124C991 167.556 925 106.027 801 80.6916C677 55.3563 540 109.646 540 109.646C540 109.646 399.5 113.266 303 109.646L185 80.6916Z" fill="#c0d9c9"/>
</svg>
